<svg xmlns="http://www.w3.org/2000/svg" width="296.079" height="58.801" viewBox="0 0 296.079 58.801">
  <g id="Group_199" data-name="Group 199" transform="translate(-35.596 -34.961)">
    <path id="Path_405" data-name="Path 405" d="M127.117,92.239c41.1-5.81,40.789-59.887,89.016-57.18-34.913,8.8-44.623,68.962-89.016,57.18" transform="translate(-45.613 0)" fill="#a02a1d"/>
    <path id="Path_406" data-name="Path 406" d="M91,89.835c27.745,25.084,47.877-15.337,65.183-29.043C132.2,58.453,119.468,91.2,91,89.835" transform="translate(-27.613 -12.814)" fill="#008c99"/>
    <path id="Path_407" data-name="Path 407" d="M35.991,67.279c14.253,28.034,53.451,15.863,67.349-4.6,0,0-20.353,5.328-50.759,2.651,0,0-17.636-1.825-16.967.807Z" transform="translate(0 -13.813)" fill="#707172"/>
    <g id="Group_196" data-name="Group 196" transform="translate(156.907 72.364)">
      <path id="Path_408" data-name="Path 408" d="M288.614,124.076H282.06l-1.115,3.662h-3.5l5.576-17.674h4.67l5.573,17.674h-3.5Zm-5.731-2.893h4.884l-2.417-8.36Z" transform="translate(-277.441 -109.795)" fill="#a7a9aa"/>
      <path id="Path_409" data-name="Path 409" d="M327.068,110.064v12.552c0,2.787-1.564,5.386-6.527,5.386s-6.528-2.6-6.528-5.386V110.064h3.344V122.35c0,1.726.822,2.708,3.184,2.708s3.184-.982,3.184-2.708V110.064Z" transform="translate(-295.668 -109.795)" fill="#a7a9aa"/>
      <path id="Path_410" data-name="Path 410" d="M350.01,113.008h-4.936v-2.944h13.218v2.944h-4.936v14.729H350.01Z" transform="translate(-311.149 -109.795)" fill="#a7a9aa"/>
      <path id="Path_411" data-name="Path 411" d="M386.621,127.738v-7.457h-6.555v7.457h-3.344V110.064h3.344v7.27h6.555v-7.27h3.345v17.674Z" transform="translate(-326.922 -109.795)" fill="#a7a9aa"/>
      <path id="Path_412" data-name="Path 412" d="M423.653,122.3c0,2.944-1.7,5.438-6.689,5.438s-6.689-2.493-6.689-5.438v-7.328c0-2.942,1.7-5.44,6.689-5.44s6.689,2.5,6.689,5.44Zm-10.034-.187c0,1.672.849,2.681,3.345,2.681s3.343-1.009,3.343-2.681v-6.954c0-1.672-.849-2.681-3.343-2.681s-3.345,1.009-3.345,2.681Z" transform="translate(-343.644 -109.528)" fill="#a7a9aa"/>
      <path id="Path_413" data-name="Path 413" d="M454.681,127.738l-4.061-5.839h-3.185v5.839H444.09V110.064h7.248c4.115,0,5.626,1.667,5.626,4.774v2.31c0,2.123-.8,3.61-2.656,4.272l4.381,6.317Zm-3.476-14.729h-3.769v6h3.769c1.83,0,2.413-.666,2.413-2.152V115.1C453.619,113.617,452.984,113.008,451.205,113.008Z" transform="translate(-360.498 -109.795)" fill="#a7a9aa"/>
      <path id="Path_414" data-name="Path 414" d="M482.1,127.738h-3.341V110.064H482.1Z" transform="translate(-377.776 -109.795)" fill="#a7a9aa"/>
      <path id="Path_415" data-name="Path 415" d="M495.916,113.008h-4.935v-2.944H504.2v2.944h-4.935v14.729h-3.346Z" transform="translate(-383.868 -109.795)" fill="#a7a9aa"/>
      <path id="Path_416" data-name="Path 416" d="M530.122,110.064h3.557l-5.707,12.552v5.122h-3.344v-5.122l-5.707-12.552h3.557l3.822,8.917Z" transform="translate(-397.793 -109.795)" fill="#a7a9aa"/>
    </g>
    <g id="Group_197" data-name="Group 197" transform="translate(156.907 48.768)">
      <path id="Path_417" data-name="Path 417" d="M277.441,62.486h7.021c4.158,0,5.7,1.7,5.7,4.86V69.8c0,3.13-1.674,4.835-5.862,4.835h-3.455v5.829h-3.4Zm6.831,3h-3.428V71.64h3.428c1.918,0,2.485-.7,2.485-2.188V67.618C286.758,66.131,286.136,65.483,284.272,65.483Z" transform="translate(-277.441 -62.486)" fill="#a7a9aa"/>
      <path id="Path_418" data-name="Path 418" d="M309.966,80.468h-3.4V62.486h3.4Z" transform="translate(-291.955 -62.486)" fill="#a7a9aa"/>
      <path id="Path_419" data-name="Path 419" d="M322.938,77.474h7.4v2.995h-10.8V62.486h3.4Z" transform="translate(-298.421 -62.486)" fill="#a7a9aa"/>
      <path id="Path_420" data-name="Path 420" d="M344.57,80.468V62.486h7.074c3.4,0,4.78,1.4,4.78,3.833v1.865a2.845,2.845,0,0,1-2,2.915,3.163,3.163,0,0,1,2.619,3.321V76.34c0,2.537-1.648,4.128-4.915,4.128Zm8.452-13.717c0-1-.542-1.458-1.783-1.458h-3.268v4.725h3.242c1.321,0,1.809-.619,1.809-1.672Zm.62,7.8c0-1.214-.539-1.807-1.891-1.807h-3.781v4.914h3.484c1.538,0,2.187-.43,2.187-1.755Z" transform="translate(-310.898 -62.486)" fill="#a7a9aa"/>
      <path id="Path_421" data-name="Path 421" d="M382.69,76.744h-6.668l-1.137,3.724h-3.564l5.672-17.982h4.751l5.671,17.982H383.85ZM376.857,73.8h4.968l-2.457-8.505Z" transform="translate(-324.23 -62.486)" fill="#a7a9aa"/>
      <path id="Path_422" data-name="Path 422" d="M417.946,80.468l-4.13-5.938h-3.242v5.938h-3.4V62.486h7.375c4.184,0,5.723,1.7,5.723,4.86V69.7c0,2.161-.807,3.673-2.7,4.348l4.456,6.424Zm-3.537-14.986h-3.835v6.1h3.835c1.865,0,2.457-.674,2.457-2.186v-1.78C416.865,66.1,416.216,65.483,414.408,65.483Z" transform="translate(-342.096 -62.486)" fill="#a7a9aa"/>
      <path id="Path_423" data-name="Path 423" d="M449.225,76.744h-6.671l-1.133,3.724h-3.565l5.671-17.982h4.753l5.673,17.982h-3.567ZM443.391,73.8h4.969L445.9,65.293Z" transform="translate(-357.39 -62.486)" fill="#a7a9aa"/>
    </g>
    <g id="Group_198" data-name="Group 198" transform="translate(260.517 48.587)">
      <path id="Path_424" data-name="Path 424" d="M484,62.668h7.039c4.167,0,5.712,1.705,5.712,4.873v2.464c0,3.14-1.677,4.847-5.876,4.847h-3.463V80.7H484Zm6.85,3.005h-3.437v6.174h3.438c1.922,0,2.49-.7,2.49-2.194V67.811C493.336,66.322,492.713,65.673,490.846,65.673Z" transform="translate(-483.996 -62.396)" fill="#a7a9aa"/>
      <path id="Path_425" data-name="Path 425" d="M525.764,75.15c0,3.005-1.733,5.551-6.823,5.551s-6.822-2.546-6.822-5.551V67.676c0-3,1.734-5.55,6.822-5.55s6.823,2.545,6.823,5.55Zm-10.233-.189c0,1.705.865,2.735,3.409,2.735s3.412-1.029,3.412-2.735v-7.1c0-1.705-.865-2.735-3.412-2.735s-3.409,1.029-3.409,2.735Z" transform="translate(-498.012 -62.126)" fill="#a7a9aa"/>
      <path id="Path_426" data-name="Path 426" d="M554.72,80.7l-4.144-5.956h-3.249V80.7h-3.411V62.668h7.392c4.2,0,5.74,1.705,5.74,4.873V69.9c0,2.167-.813,3.681-2.709,4.359l4.468,6.445Zm-3.547-15.027h-3.846v6.12h3.846c1.867,0,2.463-.678,2.463-2.194V67.811C553.636,66.3,552.984,65.673,551.173,65.673Z" transform="translate(-513.859 -62.396)" fill="#a7a9aa"/>
      <path id="Path_427" data-name="Path 427" d="M578.372,65.673h-5.034V62.668h13.484v3.005h-5.035V80.7h-3.415Z" transform="translate(-528.523 -62.396)" fill="#a7a9aa"/>
      <path id="Path_428" data-name="Path 428" d="M607.634,80.7A15.151,15.151,0,0,1,602,79.617l.6-2.681a16.933,16.933,0,0,0,5.089.842c2.466,0,2.871-.516,2.871-2.248,0-2-.054-2.167-3.3-2.872-4.359-.973-4.955-1.813-4.955-5.632,0-3.278,1.491-4.9,6.065-4.9a24.673,24.673,0,0,1,5.253.6l-.379,2.87a23.7,23.7,0,0,0-4.821-.541c-2.3,0-2.706.487-2.706,2.057,0,2.059.054,2.113,3.168,2.87,4.848,1.165,5.088,1.949,5.088,5.552C613.969,78.939,612.968,80.7,607.634,80.7Z" transform="translate(-542.81 -62.126)" fill="#a7a9aa"/>
    </g>
  </g>
</svg>
