<svg xmlns="http://www.w3.org/2000/svg" width="30" height="30" viewBox="0 0 30 30">
  <g id="Group_219" data-name="Group 219" transform="translate(-921 -1629)">
    <g id="Rectangle_424" data-name="Rectangle 424" transform="translate(921 1629)" fill="none" stroke="#f77e2a" stroke-width="1">
      <rect width="30" height="30" rx="5" stroke="none"/>
      <rect x="0.5" y="0.5" width="29" height="29" rx="4.5" fill="none"/>
    </g>
    <path id="Icon_awesome-globe" data-name="Icon awesome-globe" d="M11.941,5.957C11.427,2.788,10.213.563,8.8.563S6.175,2.788,5.66,5.957ZM5.394,9.363a22.243,22.243,0,0,0,.117,2.271h6.576A22.243,22.243,0,0,0,12.2,9.363a22.243,22.243,0,0,0-.117-2.271H5.511A22.243,22.243,0,0,0,5.394,9.363ZM16.917,5.957A8.819,8.819,0,0,0,11.31.932a11.977,11.977,0,0,1,1.774,5.025ZM6.288.932a8.813,8.813,0,0,0-5.6,5.025H4.517A11.929,11.929,0,0,1,6.288.932ZM17.3,7.092h-4.07c.075.745.117,1.508.117,2.271s-.043,1.526-.117,2.271h4.067A8.725,8.725,0,0,0,17.6,9.363,8.877,8.877,0,0,0,17.3,7.092ZM4.258,9.363c0-.763.043-1.526.117-2.271H.305a8.6,8.6,0,0,0,0,4.542H4.372C4.3,10.889,4.258,10.126,4.258,9.363Zm1.4,3.407c.515,3.169,1.728,5.394,3.141,5.394s2.626-2.225,3.141-5.394Zm5.653,5.025A8.828,8.828,0,0,0,16.92,12.77H13.088a11.977,11.977,0,0,1-1.774,5.025ZM.685,12.77a8.819,8.819,0,0,0,5.607,5.025A11.977,11.977,0,0,1,4.517,12.77H.685Z" transform="translate(927.572 1634.887)" fill="#f77e2a"/>
  </g>
</svg>
