<svg xmlns="http://www.w3.org/2000/svg" width="30" height="30" viewBox="0 0 30 30">
  <g id="Group_222" data-name="Group 222" transform="translate(-806 -1629)">
    <g id="Rectangle_422" data-name="Rectangle 422" transform="translate(806 1629)" fill="none" stroke="#8ccdbf" stroke-width="1">
      <rect width="30" height="30" rx="5" stroke="none"/>
      <rect x="0.5" y="0.5" width="29" height="29" rx="4.5" fill="none"/>
    </g>
    <path id="Icon_metro-phone-in-talk" data-name="Icon metro-phone-in-talk" d="M24.445,19.676a12.09,12.09,0,0,1-3.784-.6,1.063,1.063,0,0,0-1.076.26l-2.332,2.337a15.989,15.989,0,0,1-6.985-6.98L12.6,12.352a1.063,1.063,0,0,0,.26-1.076,12.123,12.123,0,0,1-.6-3.789,1.056,1.056,0,0,0-1.06-1.06H7.487a1.056,1.056,0,0,0-1.06,1.06A18.017,18.017,0,0,0,24.445,25.505a1.056,1.056,0,0,0,1.06-1.06v-3.71a1.056,1.056,0,0,0-1.06-1.06Zm-1.06-3.71h2.12a9.54,9.54,0,0,0-9.539-9.539v2.12A7.421,7.421,0,0,1,23.385,15.966Zm-4.24,0h2.12a5.3,5.3,0,0,0-5.3-5.3v2.12A3.182,3.182,0,0,1,19.146,15.966Z" transform="matrix(0.985, 0.174, -0.174, 0.985, 807.631, 1626.004)" fill="#f77e2a"/>
  </g>
</svg>
