<svg xmlns="http://www.w3.org/2000/svg" width="59.28" height="55.967" viewBox="0 0 59.28 55.967">
  <g id="Group_207" data-name="Group 207" transform="translate(152.291 44.008)">
    <g id="Group_227" data-name="Group 227" transform="translate(-152.291 -44.008)">
      <path id="Path_1011" data-name="Path 1011" d="M-95.191-32.734l-33.952,4.89c-.006.132-.016.248-.016.364q0,13.827,0,27.655c0,.656.115,1.315.083,1.968a8.86,8.86,0,0,1-2.619,5.775,12.913,12.913,0,0,1-7.473,3.837,12.8,12.8,0,0,1-8.07-1.137,8.7,8.7,0,0,1-4.628-5.1,8.141,8.141,0,0,1,1.5-7.836,12.333,12.333,0,0,1,7.293-4.509,13.022,13.022,0,0,1,9,.958,10.776,10.776,0,0,1,1.454.9c.461.331.879.723,1.363,1.127V-4.3q0-16.609,0-33.219c0-.868.266-1.19,1.121-1.319,1.409-.212,2.82-.415,4.231-.618a1.049,1.049,0,0,1,1.21.855,1.039,1.039,0,0,1-.924,1.216q-1.643.247-3.289.469c-.181.025-.269.065-.268.274.007,2.162,0,4.324.006,6.486a1.652,1.652,0,0,0,.027.2l33.923-4.886v-6.915l-2.386.342-10.289,1.481-9.865,1.421q-.944.136-1.888.275a1.064,1.064,0,0,1-1.3-.848,1.043,1.043,0,0,1,.993-1.222c2.17-.317,4.341-.625,6.512-.938l10.386-1.5q4.363-.628,8.726-1.254a1.027,1.027,0,0,1,1.2,1.068c.007,1.174,0,2.348,0,3.523q0,4.84,0,9.679a1.02,1.02,0,0,1-1.009,1.134,1,1,0,0,1-1.058-1.018c-.009-.911,0-1.822,0-2.733C-95.191-32.461-95.191-32.578-95.191-32.734ZM-139.824-5.193c-.878.119-1.769.181-2.632.369a10.25,10.25,0,0,0-6.331,3.89,6.038,6.038,0,0,0-.836,6.441,6.748,6.748,0,0,0,3.229,3.213,10.958,10.958,0,0,0,7.622.83,10.427,10.427,0,0,0,6.159-3.766,6.456,6.456,0,0,0,1.465-3.806,6.069,6.069,0,0,0-2.858-5.392A10.557,10.557,0,0,0-139.824-5.193Z" transform="translate(152.291 44.008)" fill="#fff"/>
      <path id="Path_1012" data-name="Path 1012" d="M416.053,278.512v-.47q0-6.584,0-13.167a1.035,1.035,0,0,1,1.4-1.063.98.98,0,0,1,.664.9c.007.1,0,.2,0,.3q0,8.641.005,17.282c0,.481.088.961.1,1.442a8.873,8.873,0,0,1-2.761,6.61,13.778,13.778,0,0,1-14.868,2.841,8.994,8.994,0,0,1-4.866-4.587,8.021,8.021,0,0,1,.947-8.284,12.06,12.06,0,0,1,7.066-4.732,13.1,13.1,0,0,1,9.684.958,9.512,9.512,0,0,1,2.352,1.726C415.852,278.329,415.925,278.392,416.053,278.512Zm-10.286,13.64a11.636,11.636,0,0,0,3.22-.426,10.064,10.064,0,0,0,6.057-4.187,5.907,5.907,0,0,0,.336-6.416,6.977,6.977,0,0,0-3.308-2.955,11.163,11.163,0,0,0-7.9-.544,10.141,10.141,0,0,0-5.86,3.987,6.33,6.33,0,0,0-1.2,3.43,5.943,5.943,0,0,0,2.353,5.019A9.765,9.765,0,0,0,405.767,292.152Z" transform="translate(-358.953 -243.471)" fill="#fff"/>
      <path id="Path_1013" data-name="Path 1013" d="M-70.274,585.086a1.016,1.016,0,0,1-.991-1.357,5.832,5.832,0,0,1,.686-1.376,6.823,6.823,0,0,1,4.619-2.816,1.023,1.023,0,0,1,1.164,1.337,1.032,1.032,0,0,1-.862.718,5.345,5.345,0,0,0-2.325,1.024,3.76,3.76,0,0,0-1.3,1.738A1.017,1.017,0,0,1-70.274,585.086Z" transform="translate(76.659 -538.464)" fill="#fff"/>
      <path id="Path_1014" data-name="Path 1014" d="M481.593,500.705a1.057,1.057,0,0,1,1.149.923,1.026,1.026,0,0,1-.837,1.13,5.5,5.5,0,0,0-2.62,1.224,3.717,3.717,0,0,0-1.082,1.546,1.042,1.042,0,1,1-1.959-.7,6.129,6.129,0,0,1,3.219-3.443A6.842,6.842,0,0,1,481.593,500.705Z" transform="translate(-434.786 -464.837)" fill="#fff"/>
    </g>
  </g>
</svg>
