<svg id="Group_304" data-name="Group 304" xmlns="http://www.w3.org/2000/svg" width="44" height="44" viewBox="0 0 44 44">
  <g id="Rectangle_422" data-name="Rectangle 422" fill="none" stroke="#8ccdbf" stroke-width="1">
    <rect width="44" height="44" rx="5" stroke="none"/>
    <rect x="0.5" y="0.5" width="43" height="43" rx="4.5" fill="none"/>
  </g>
  <path id="Path_1040" data-name="Path 1040" d="M27.5,1.362,21.705.023A1.347,1.347,0,0,0,20.172.8L17.495,7.044a1.335,1.335,0,0,0,.385,1.561l3.379,2.766a20.667,20.667,0,0,1-9.882,9.882L8.611,17.874a1.337,1.337,0,0,0-1.561-.385L.8,20.166A1.354,1.354,0,0,0,.024,21.7l1.338,5.8a1.338,1.338,0,0,0,1.3,1.037A25.872,25.872,0,0,0,28.542,2.667,1.337,1.337,0,0,0,27.5,1.362Z" transform="translate(7.299 7.412)" fill="#70c3b1"/>
</svg>
