<svg xmlns="http://www.w3.org/2000/svg" width="72.717" height="67.89" viewBox="0 0 72.717 67.89">
  <g id="Group_218" data-name="Group 218" transform="translate(-0.862 16.559) rotate(-16)">
    <path id="Path_1018" data-name="Path 1018" d="M162.4,310.863c.408.27.731.481,1.051.7a200.664,200.664,0,0,0,19.806,12.153,51.87,51.87,0,0,0,6.473,2.795c2.977,1.049,5.588.167,7.735-2.064a20.543,20.543,0,0,0,4.54-8.573,50.067,50.067,0,0,0,1.8-18.544,40.993,40.993,0,0,0-2.835-12.657,18.078,18.078,0,0,0-3.515-5.691,6.5,6.5,0,0,0-6.958-1.991,51.7,51.7,0,0,0-10.508,4.794,229.953,229.953,0,0,0-20.137,12.758,2.748,2.748,0,0,1-3.005.378c-1.789-.715-3.631-1.3-5.453-1.93a3.026,3.026,0,0,0-4.191,2.346,29.86,29.86,0,0,0-.038,13.344,3.038,3.038,0,0,0,4.1,2.287c.854-.288,1.705-.586,2.6-.9.085,1.569.139,3.06.25,4.547a47.642,47.642,0,0,0,1.928,9.753,1.982,1.982,0,0,0,1.914,1.426c.681.022,1.364.011,2.045.005a1.978,1.978,0,0,0,2.111-2.363,44.286,44.286,0,0,1,.171-12.143C162.3,311.21,162.335,311.129,162.4,310.863Zm24.918-31.384.173.226a1.093,1.093,0,0,1-.1.227c-2.686,3.6-3.96,7.756-4.79,12.08a52.524,52.524,0,0,0-.472,16.459,35.341,35.341,0,0,0,3.311,11.829c.707,1.389,1.611,2.678,2.5,4.134-1.33-.637-2.594-1.2-3.818-1.837a225.749,225.749,0,0,1-23.73-14.872,4.236,4.236,0,0,1-1.443-2.022,12.489,12.489,0,0,1-.062-7.711,3.945,3.945,0,0,1,1.665-2.294c5.759-3.695,11.472-7.463,17.3-11.053C180.908,282.762,184.159,281.192,187.323,279.48Zm-3.731,29.49,6.036-1.234a6.109,6.109,0,0,0,4.908-5.76,6.047,6.047,0,0,0-4.687-6.019q-2.777-.637-5.583-1.141c-.619-.111-.734-.367-.615-.916.389-1.8.674-3.629,1.151-5.4a19.468,19.468,0,0,1,4.208-8.45c2.386-2.584,5.452-2.581,7.731.1a18.128,18.128,0,0,1,2.42,3.679,34.636,34.636,0,0,1,3.1,11.962A52.262,52.262,0,0,1,201,314.628a20.42,20.42,0,0,1-4.138,8.587c-2.487,2.819-5.565,2.8-8.038-.01a17.954,17.954,0,0,1-3.262-5.834A38.416,38.416,0,0,1,183.592,308.969Zm-25.767-12.254a15.124,15.124,0,0,0,.1,10.432c-2.527.884-4.978,1.766-7.447,2.593a1.341,1.341,0,0,1-1.851-1.109,27.234,27.234,0,0,1,.052-13.4,1.308,1.308,0,0,1,1.652-1.092C152.825,294.959,155.3,295.843,157.825,296.715Zm25.6,10.843a51.5,51.5,0,0,1,.011-11.487c2.131.432,4.136.809,6.128,1.249a4.608,4.608,0,0,1,.061,8.977C187.609,306.761,185.571,307.126,183.424,307.558ZM160.268,318.27c.16,1.763.289,3.485.485,5.2.074.65-.055.981-.766.953-.623-.025-1.254.047-1.868-.031a1.015,1.015,0,0,1-.728-.523,43.553,43.553,0,0,1-2.045-12.879c.011-1.463.1-1.347,1.469-1.989a2.919,2.919,0,0,1,3.65.482,1.236,1.236,0,0,1,.509,1.193C160.706,313.21,160.5,315.751,160.268,318.27Z" transform="translate(-146.43 -273.547)" fill="#fff"/>
    <path id="Path_1019" data-name="Path 1019" d="M132.187,262.93a5.882,5.882,0,0,0,.64-.25c1.785-.978,3.581-1.939,5.335-2.972a1.136,1.136,0,0,0,.449-.982c-.181-.544-.685-.458-1.133-.21-1.781.985-3.577,1.946-5.334,2.973a1.443,1.443,0,0,0-.486.933C131.634,262.558,132.007,262.765,132.187,262.93Z" transform="translate(-78.553 -258.322)" fill="#fff"/>
    <path id="Path_1020" data-name="Path 1020" d="M128.013,557.56a1.948,1.948,0,0,0,.461.494c1.8,1.02,3.606,2.04,5.445,2.99a1.148,1.148,0,0,0,1.07-.181c.376-.412.02-.783-.384-1.009-1.809-1.009-3.615-2.022-5.44-3C128.525,556.506,127.981,556.8,128.013,557.56Z" transform="translate(-74.453 -505.836)" fill="#fff"/>
    <path id="Path_1021" data-name="Path 1021" d="M112.815,488.358c-.2.192-.527.37-.564.6a.87.87,0,0,0,.332.756,35.49,35.49,0,0,0,3.419,1,.844.844,0,0,0,.683-.458.835.835,0,0,0-.276-.767C115.267,489.078,114.1,488.75,112.815,488.358Z" transform="translate(-53.317 -449.14)" fill="#fff"/>
    <path id="Path_1022" data-name="Path 1022" d="M115.778,341.873c1.288-.4,2.429-.715,3.54-1.118a.815.815,0,0,0,.308-.748c-.107-.234-.527-.526-.739-.477a31.967,31.967,0,0,0-3.326.975.841.841,0,0,0-.358.736C115.256,341.492,115.59,341.682,115.778,341.873Z" transform="translate(-56.762 -325.681)" fill="#fff"/>
    <path id="Path_1023" data-name="Path 1023" d="M116.612,412.867a2.175,2.175,0,0,0-.837.02,4.02,4.02,0,0,0-.816.655c.248.247.465.651.75.707a4.935,4.935,0,0,0,1.765,0c.275-.048.493-.418.736-.642a3.686,3.686,0,0,0-.763-.715C117.224,412.776,116.894,412.868,116.612,412.867Z" transform="translate(-55.288 -386.491)" fill="#fff"/>
  </g>
</svg>
