<svg xmlns="http://www.w3.org/2000/svg" width="21.932" height="19.226" viewBox="0 0 21.932 19.226">
  <path id="Icon_map-food" data-name="Icon map-food" d="M22.6,7.956l-1.8,14.094H14.733L12.942,7.886h7.414l1.465-5.061.831.25L21.246,7.946l1.358.011ZM12.084,16.11s.227-1.828-2.922-1.828H4.146C1,14.283,1.224,16.11,1.224,16.11H12.084ZM1.224,20.223S1,22.05,4.146,22.05H9.162c3.149,0,2.922-1.828,2.922-1.828H1.224Zm10.388-.914a1.051,1.051,0,0,0,.932-1.142,1.05,1.05,0,0,0-.932-1.143H1.652A1.051,1.051,0,0,0,.72,18.167a1.053,1.053,0,0,0,.932,1.142h9.96Z" transform="translate(-0.72 -2.825)" fill="#45b49d"/>
</svg>
