<svg xmlns="http://www.w3.org/2000/svg" width="16.515" height="18.235" viewBox="0 0 16.515 18.235">
  <path id="Icon_ionic-md-share" data-name="Icon ionic-md-share" d="M18.255,16.015a2.507,2.507,0,0,0-1.794.687L9.882,12.9a3.081,3.081,0,0,0,.092-.642,3.08,3.08,0,0,0-.092-.642l6.487-3.757a2.753,2.753,0,1,0-.874-2.016,3.063,3.063,0,0,0,.092.642L9.1,10.241a2.769,2.769,0,0,0-1.886-.733A2.724,2.724,0,0,0,4.5,12.257a2.77,2.77,0,0,0,4.646,2.016l6.533,3.8a2.3,2.3,0,0,0-.092.6,2.668,2.668,0,1,0,2.668-2.657Z" transform="translate(-4.5 -3.094)" fill="#fff"/>
</svg>
