<svg xmlns="http://www.w3.org/2000/svg" width="16.264" height="16.264" viewBox="0 0 16.264 16.264">
  <path id="Icon_metro-user-plus" data-name="Icon metro-user-plus" d="M8.67,13.618a5.6,5.6,0,0,1,3.654-5.245A4.641,4.641,0,0,0,12.736,6.5c0-2.526,0-4.574-3.05-4.574S6.637,3.976,6.637,6.5A4.54,4.54,0,0,0,8.67,10.28v.838c-3.448.282-6.1,1.976-6.1,4.025h6.31a5.577,5.577,0,0,1-.211-1.525ZM14.26,9.044a4.574,4.574,0,1,0,4.574,4.574A4.574,4.574,0,0,0,14.26,9.044ZM16.8,14.126H14.769v2.033H13.752V14.126H11.719V13.11h2.033V11.077h1.017V13.11H16.8v1.017Z" transform="translate(-2.571 -1.928)" fill="#fff"/>
</svg>
