<svg xmlns="http://www.w3.org/2000/svg" width="48.51" height="34.953" viewBox="0 0 48.51 34.953">
  <g id="Icon_ionic-ios-repeat" data-name="Icon ionic-ios-repeat" transform="translate(-3.5 -7.426)">
    <path id="Path_1025" data-name="Path 1025" d="M37.517,12.978l-4.07-4.045A1.7,1.7,0,0,0,31.8,8.5a1.447,1.447,0,0,0-.424.182,1.689,1.689,0,0,0-.824,1.587,1.777,1.777,0,0,0,.521,1.1l1.938,1.926H13.947A9.47,9.47,0,0,0,4.5,22.729v1.938a1.7,1.7,0,0,0,1.7,1.7h0a1.7,1.7,0,0,0,1.7-1.7V22.729a6.079,6.079,0,0,1,6.056-6.056H32.769L30.831,18.6a1.718,1.718,0,0,0-.521,1.054,1.708,1.708,0,0,0,1.7,1.865,1.676,1.676,0,0,0,1.2-.5l4.312-4.288a2.62,2.62,0,0,0,.787-1.877A2.7,2.7,0,0,0,37.517,12.978Z" transform="translate(0 0)" fill="#f77e2a" stroke="#161a1b" stroke-width="2"/>
    <path id="Path_1026" data-name="Path 1026" d="M43.985,17.156h0a1.7,1.7,0,0,0-1.7,1.7V20.79a6.079,6.079,0,0,1-6.056,6.056H17.411l1.938-1.926a1.718,1.718,0,0,0,.521-1.066,1.708,1.708,0,0,0-1.7-1.865,1.676,1.676,0,0,0-1.2.5l-4.312,4.288a2.632,2.632,0,0,0,0,3.755l4.07,4.045a1.7,1.7,0,0,0,1.647.436,1.447,1.447,0,0,0,.424-.182,1.689,1.689,0,0,0,.824-1.587,1.777,1.777,0,0,0-.521-1.1l-1.938-1.926H36.233a9.46,9.46,0,0,0,9.447-9.447V18.828A1.7,1.7,0,0,0,43.985,17.156Z" transform="translate(5.33 6.299)" fill="#f77e2a" stroke="#161a1b" stroke-width="2"/>
  </g>
</svg>
