<svg xmlns="http://www.w3.org/2000/svg" width="20.102" height="15.227" viewBox="0 0 20.102 15.227">
  <path id="Icon_map-clothing-store" data-name="Icon map-clothing-store" d="M21.892,9.055a.481.481,0,0,1-.085.385l-2.414,3.592a.537.537,0,0,1-.435.215,1.249,1.249,0,0,1-.219-.022L16.8,12.75V21.26a.43.43,0,0,1-.448.448H6.951A.43.43,0,0,1,6.5,21.26V12.75l-1.738.479a.409.409,0,0,1-.488-.193l-2.4-3.583a.452.452,0,0,1-.063-.376.437.437,0,0,1,.246-.287L6.951,6.48H9.191a.428.428,0,0,1,.448.448c0,.923,1.294,1.576,2.217,1.576s2.262-.649,2.262-1.576a.43.43,0,0,1,.448-.448H16.8l4.837,2.266a.482.482,0,0,1,.251.309Z" transform="translate(-1.802 -6.48)" fill="#45b49d"/>
</svg>
