<svg xmlns="http://www.w3.org/2000/svg" width="230.75" height="59.265" viewBox="0 0 230.75 59.265">
  <g id="Group_165" data-name="Group 165" transform="translate(-67.722 -67.541)">
    <g id="Group_162" data-name="Group 162" transform="translate(141.662 107.104)">
      <path id="Path_153" data-name="Path 153" d="M245.774,160.387a5.955,5.955,0,0,1,.08,11.9h-4.541v6.691H237.6V160.387Zm-4.461,8.444h4.461c1.089,0,1.992-1.354,1.992-2.522,0-1.939-1.54-2.417-3.107-2.417h-3.346Z" transform="translate(-237.596 -159.537)" fill="#fff"/>
      <path id="Path_154" data-name="Path 154" d="M278.036,170.758a7.169,7.169,0,1,1-7.2,7.169A6.984,6.984,0,0,1,278.036,170.758Zm-3.532,7.169c0,2.283,1.434,3.983,3.532,3.983a3.684,3.684,0,0,0,3.531-3.983c0-2.363-1.487-3.983-3.531-3.983C275.938,173.944,274.5,175.564,274.5,177.927Z" transform="translate(-256.37 -165.394)" fill="#fff"/>
      <path id="Path_155" data-name="Path 155" d="M310.6,171.5l.478,2.177c.85-1.752,2.283-2.31,4.726-2.31v3.771h-.451c-2.336,0-4.01.9-4.01,3.876v6.16h-3.664V171.5Z" transform="translate(-277.177 -165.739)" fill="#fff"/>
      <path id="Path_156" data-name="Path 156" d="M335.262,162.217V166.2h2.895v2.708h-2.895V175.6a1.247,1.247,0,0,0,1.354,1.381,14.347,14.347,0,0,0,1.62-.159l.531,2.576a6.894,6.894,0,0,1-2.735.611c-3.266,0-4.408-1.513-4.408-4.912v-6.187h-1.859v-2.151l1.859-.531.558-4.009Z" transform="translate(-289.647 -160.571)" fill="#fff"/>
      <path id="Path_157" data-name="Path 157" d="M374.474,160.387v7.806h7.7v-7.806h3.717v18.587h-3.717v-7.329h-7.7v7.329h-3.718V160.387Z" transform="translate(-312.796 -159.537)" fill="#fff"/>
      <path id="Path_158" data-name="Path 158" d="M417.014,170.758c4.275,0,6.346,3.319,6.346,6.983a8.976,8.976,0,0,1-.133,1.593H413.96c.16,1.965,1.859,2.709,3.505,2.709a10.057,10.057,0,0,0,3.9-.823l1.221,2.682a10.909,10.909,0,0,1-5.2,1.195c-4.169,0-7.222-2.814-7.222-7.037C410.163,173.811,412.924,170.758,417.014,170.758Zm2.894,6.028c-.079-1.513-.664-2.841-2.682-2.841a3.186,3.186,0,0,0-3.319,2.841Z" transform="translate(-335.051 -165.394)" fill="#fff"/>
      <path id="Path_159" data-name="Path 159" d="M457.306,158.435v19.437h-2.841l-.451-1.752a4.759,4.759,0,0,1-4.169,2.018c-3.983,0-6.558-3.4-6.558-7.169s2.6-7.169,6.505-7.169a4.938,4.938,0,0,1,3.957,1.646v-7.01ZM446.9,170.941c0,2.522,1.54,4.01,3.585,4.01a4,4,0,0,0-.027-7.966C448.384,166.985,446.9,168.472,446.9,170.941Z" transform="translate(-353.756 -158.435)" fill="#fff"/>
      <path id="Path_160" data-name="Path 160" d="M485.536,158.435v15.693a.422.422,0,0,0,.478.478c.372,0,.717-.027,1.275-.08v2.894a9.089,9.089,0,0,1-2.656.451,2.559,2.559,0,0,1-2.735-2.814V158.435Z" transform="translate(-375.562 -158.435)" fill="#fff"/>
      <path id="Path_161" data-name="Path 161" d="M503.933,170.758c3.426,0,5.364,1.593,5.364,4.593v5.736c0,.372.186.478.584.478.212,0,.664-.027,1.221-.08v2.894a6.176,6.176,0,0,1-2.2.451c-.877,0-2.337-.292-2.337-1.805v-.292a4.939,4.939,0,0,1-4.3,2.363c-2.523,0-4.992-1.567-4.992-4.488,0-2.974,2.549-4.408,5.709-4.408a25.172,25.172,0,0,1,2.868.186v-.4c0-2.018-1.381-2.284-2.5-2.284a22.935,22.935,0,0,0-4.169.531l-.664-2.575A19.35,19.35,0,0,1,503.933,170.758Zm-.292,7.78c-1.195,0-3.027.292-3.027,1.912a2.029,2.029,0,0,0,2.256,1.912c1.381,0,2.974-.956,2.974-2.231V178.75A15.112,15.112,0,0,0,503.641,178.538Z" transform="translate(-384.242 -165.394)" fill="#fff"/>
      <path id="Path_162" data-name="Path 162" d="M535.489,171.024l.585,1.832a4.494,4.494,0,0,1,4.036-2.1c2.549,0,5.177,1.381,5.177,5.762v8.311H541.6v-8.125a2.293,2.293,0,0,0-2.443-2.47,2.767,2.767,0,0,0-2.788,2.974v7.621h-3.718V171.024Z" transform="translate(-404.222 -165.394)" fill="#fff"/>
      <path id="Path_163" data-name="Path 163" d="M579.669,158.435v19.437h-2.841l-.451-1.752a4.76,4.76,0,0,1-4.169,2.018c-3.983,0-6.558-3.4-6.558-7.169s2.6-7.169,6.505-7.169a4.937,4.937,0,0,1,3.957,1.646v-7.01ZM569.26,170.941c0,2.522,1.54,4.01,3.585,4.01a4,4,0,0,0-.027-7.966C570.747,166.985,569.26,168.472,569.26,170.941Z" transform="translate(-422.859 -158.435)" fill="#fff"/>
    </g>
    <g id="Group_163" data-name="Group 163" transform="translate(141.481 87.614)">
      <path id="Path_164" data-name="Path 164" d="M248.7,116.007v1.6h-4.909v12.724h-1.718V117.6h-4.889v-1.6Z" transform="translate(-237.179 -114.984)" fill="#fff"/>
      <path id="Path_165" data-name="Path 165" d="M267.035,124a5.523,5.523,0,1,1-5.462,5.523A5.444,5.444,0,0,1,267.035,124Zm-3.744,5.523a3.763,3.763,0,1,0,3.744-4.03A3.854,3.854,0,0,0,263.291,129.52Z" transform="translate(-250.955 -119.496)" fill="#fff"/>
      <path id="Path_166" data-name="Path 166" d="M290.519,124.467l2.6,8.591h.061l2.516-8.591h1.719l2.516,8.591h.062l2.577-8.591h1.78L300.869,135.1h-1.78l-2.516-8.571-2.537,8.571h-1.8l-3.5-10.637Z" transform="translate(-266.297 -119.762)" fill="#fff"/>
      <path id="Path_167" data-name="Path 167" d="M330.259,124.2l.286,1.841A3.945,3.945,0,0,1,334.187,124c2.373,0,4.03,1.473,4.03,4.541v6.3h-1.7v-6.26c0-1.841-1-2.966-2.7-2.966a3.161,3.161,0,0,0-3.15,3.314v5.912h-1.7V124.2Z" transform="translate(-289.017 -119.496)" fill="#fff"/>
      <path id="Path_168" data-name="Path 168" d="M371.938,124a5.523,5.523,0,1,1-5.462,5.523A5.445,5.445,0,0,1,371.938,124Zm-3.744,5.523a3.763,3.763,0,1,0,3.744-4.03A3.854,3.854,0,0,0,368.194,129.52Z" transform="translate(-310.197 -119.496)" fill="#fff"/>
      <path id="Path_169" data-name="Path 169" d="M399.632,115.13a6.453,6.453,0,0,0-1.064-.1c-1.247,0-1.452.941-1.452,1.882v1.452h2.517v1.288h-2.517V129h-1.677v-9.349h-1.514v-1.043l1.514-.245v-1.412c0-2.087.736-3.294,3.028-3.294a5.918,5.918,0,0,1,1.33.164Z" transform="translate(-325.698 -113.657)" fill="#fff"/>
    </g>
    <g id="Group_164" data-name="Group 164" transform="translate(67.722 67.541)">
      <path id="Path_170" data-name="Path 170" d="M135.925,67.541l29.486,29.645-29.5,29.618H165.47V67.541Z" transform="translate(-106.229 -67.541)" fill="#213e42"/>
      <path id="Path_171" data-name="Path 171" d="M67.733,135.653v29.611l29.674-29.619Z" transform="translate(-67.728 -106.002)" fill="#bd472a"/>
      <path id="Path_172" data-name="Path 172" d="M67.722,97.186H97.4L67.722,67.541Z" transform="translate(-67.722 -67.541)" fill="#f77e2a"/>
      <path id="Path_173" data-name="Path 173" d="M67.722,67.541,97.4,97.187l.016-29.646Z" transform="translate(-67.722 -67.541)" fill="#8ccdbf"/>
      <path id="Path_174" data-name="Path 174" d="M135.907,97.2l29.5-.019L135.925,67.541Z" transform="translate(-106.229 -67.541)" fill="#45b49d"/>
      <path id="Path_175" data-name="Path 175" d="M135.907,135.648v29.618l29.5-29.618Z" transform="translate(-106.229 -106.003)" fill="#8ccdbf"/>
    </g>
  </g>
</svg>
