<svg xmlns="http://www.w3.org/2000/svg" width="58.834" height="40.779" viewBox="0 0 58.834 40.779">
  <g id="Group_230" data-name="Group 230" transform="translate(-48.187 -207.637)">
    <path id="Path_1015" data-name="Path 1015" d="M450.745,273.63v-1.82q-.986.008-1.972.012v1.8Z" transform="translate(-353.42 -56.617)" fill="#fff"/>
    <path id="Path_1016" data-name="Path 1016" d="M273.56,280.1a16.559,16.559,0,0,0-.1-2.171,7.48,7.48,0,0,0-7.222-6.625v1.847h.195a5.418,5.418,0,0,1,5.138,4.53,7.526,7.526,0,0,1,.163,1.575c.007,3.375-.006,6.75-.016,10.125a6.437,6.437,0,0,1-1.194,3.812,5.026,5.026,0,0,1-4.355,2.256c-2.845-.027-5.689-.03-8.534-.043-.233,0-.466,0-.788,0l.318,4.706c-.189-.138-.309-.21-.411-.3-1.514-1.368-3.017-2.748-4.547-4.1a1.376,1.376,0,0,0-.825-.316c-2.3-.03-4.595-.106-6.886-.009a5.48,5.48,0,0,1-5.515-4.441,8.494,8.494,0,0,1-.209-1.865q-.01-4.945.037-9.889a6.243,6.243,0,0,1,2.416-5.134,4.48,4.48,0,0,1,2.84-.972l12.318.033V271.33c-4.047-.018-8.094-.06-12.141-.075a6.616,6.616,0,0,0-5.115,2.253,8.134,8.134,0,0,0-2.14,5.584q-.044,5.15-.014,10.3a8.926,8.926,0,0,0,.257,2.035,7.243,7.243,0,0,0,7.252,5.773c1.979-.066,3.963.021,5.944,0a1.741,1.741,0,0,1,1.3.514c2.374,2.171,4.77,4.319,7.16,6.473.122.11.258.2.46.361l-.548-7.313h.683q3.473.007,6.945.015a6.368,6.368,0,0,0,4.358-1.643,8.094,8.094,0,0,0,2.759-6.264C273.568,286.258,273.563,283.178,273.56,280.1Z" transform="translate(-166.541 -56.128)" fill="#fff"/>
    <path id="Path_1017" data-name="Path 1017" d="M64.654,236.473l-.123-.08c.1-1.5.2-3,.313-4.571-.236-.02-.408-.048-.58-.048-2.06,0-4.121.027-6.181.012a22.392,22.392,0,0,1-3.869-.151,5.641,5.641,0,0,1-4.192-5.423c-.089-3.609-.076-7.22-.079-10.83a6.743,6.743,0,0,1,.238-1.625,5.454,5.454,0,0,1,5.007-4.338q11.155-.051,22.311-.072a4.843,4.843,0,0,1,2.533.645,6.013,6.013,0,0,1,2.565,3.191c.063.164.2.414.317.425.512.047,1.03.02,1.558.02a7.1,7.1,0,0,0-6.809-5.992q-11.273.006-22.547.059a5.9,5.9,0,0,0-3.181.918,7.843,7.843,0,0,0-3.716,6.884c-.057,2.589-.022,5.181.014,7.77a26.936,26.936,0,0,0,.224,4.162,7.172,7.172,0,0,0,7.37,6.113c2.176-.073,4.356-.03,6.534-.035.2,0,.409.03.633.047l-.543,7.185a1.185,1.185,0,0,0,.2-.106q3.061-2.757,6.115-5.521a.6.6,0,0,0,.215-.382c-.027-.652-.092-1.3-.15-2.025Z" transform="translate(0 0)" fill="#fff"/>
  </g>
</svg>
