<svg xmlns="http://www.w3.org/2000/svg" width="30.199" height="32.329" viewBox="0 0 30.199 32.329">
  <path id="Path_1042" data-name="Path 1042" d="M10.086,16.165a6.157,6.157,0,0,1-.042.691L21.651,23.1a4.8,4.8,0,0,1,7.111.076,5.661,5.661,0,0,1-.071,7.618,4.8,4.8,0,0,1-7.111-.076,5.6,5.6,0,0,1-1.437-3.775,4.892,4.892,0,0,1,.05-.7L8.46,20.1a4.8,4.8,0,0,1-7.107-.26A5.66,5.66,0,0,1,1.6,12.223a4.787,4.787,0,0,1,6.864,0L20.193,6.091a4.892,4.892,0,0,1-.05-.7A5.218,5.218,0,0,1,25.167,0,5.215,5.215,0,0,1,30.2,5.382a5.217,5.217,0,0,1-5.024,5.391,4.864,4.864,0,0,1-3.524-1.54l-11.565,6.24A5.945,5.945,0,0,1,10.086,16.165Z" transform="translate(0 0)" fill="#fff" opacity="0.95"/>
</svg>
