<?xml version="1.0" encoding="utf-8"?>
<!-- Generator: Adobe Illustrator 24.1.2, SVG Export Plug-In . SVG Version: 6.00 Build 0)  -->
<svg version="1.1" id="Layer_1" xmlns="http://www.w3.org/2000/svg" xmlns:xlink="http://www.w3.org/1999/xlink" x="0px" y="0px"
	 viewBox="0 0 181 100" style="enable-background:new 0 0 181 100;" xml:space="preserve">
<style type="text/css">
	.st0{fill:#FFFFFF;}
</style>
<g id="KV">
	<g id="BL">
		<path class="st0" d="M174.9,55.2h-4.8c0-27.4-35.7-49.6-79.6-49.6S11,27.8,11,55.2H6.2c0-14.7,8.9-28.5,25.1-38.8
			C47.2,6.3,68.2,0.8,90.6,0.8s43.4,5.5,59.2,15.6C166,26.6,174.9,40.4,174.9,55.2z"/>
		<path class="st0" d="M171.9,44.9h-3.2c0-8.4-7.9-16.4-22.4-22.5c-14.9-6.3-34.7-9.8-55.8-9.8s-40.9,3.5-55.8,9.8
			c-14.4,6.1-22.4,14.1-22.4,22.5H9.2c0-9.8,8.6-18.8,24.3-25.5c15.3-6.5,35.5-10,57-10s41.8,3.6,57,10.1
			C163.2,26.1,171.9,35.2,171.9,44.9z"/>
		<polyline class="st0" points="10.1,52.5 34,32.4 29.1,26.5 13.6,39.5 		"/>
		<polyline class="st0" points="171.1,51.8 148.9,33.1 153.8,27.2 168.2,39.3 		"/>
		<polyline class="st0" points="180.6,71.2 176,44.9 163.3,47.1 167.5,71.2 		"/>
		<polyline class="st0" points="0.6,71.2 5.2,44.9 18,47.1 13.7,71.2 		"/>
		<path class="st0" d="M105.1,16.8l13.2-10.3l-1-1.3l-14.7,11.4c-3.7-0.2-7.5-0.2-11.4-0.2l0.1-14h-1.6l-0.1,14
			c-4,0-7.9,0.1-11.7,0.4L63.2,5.2l-1,1.3l13.4,10.4c-27.5,1.7-50.8,8-61.7,16.9l7.6,9.3c9-7.3,34-14.7,69.8-14.7
			c34.2,0,59.2,7,68.8,13.9l7-9.7C155.2,24,132.2,18.2,105.1,16.8z"/>
		<rect x="0.2" y="88.5" class="st0" width="180.7" height="3.1"/>
		<rect y="70.7" class="st0" width="180.7" height="3.1"/>
	</g>
	<g id="W">
		<path class="st0" d="M44.1,56.8l-1-12.6L42,56.8h-2.6l-1.9-15h2l1.1,13l1.3-12.9h2.4l1.3,13l1.1-13h1.9l-1.9,15L44.1,56.8z"/>
		<path class="st0" d="M49.4,41.8h4.7v1.6h-2.8v5h2.4V50h-2.4v5.2h2.8v1.6h-4.7V41.8z"/>
		<path class="st0" d="M55.1,56.8v-15H57v13.4h2.5v1.6C59.5,56.8,55.1,56.8,55.1,56.8z"/>
		<path class="st0" d="M60.3,43l1.2-1.2h2.9l1.2,1.2v3.4h-1.9v-2.6l-0.4-0.4h-0.7l-0.4,0.4v11l0.4,0.4h0.7l0.4-0.4v-2.6h1.9v3.4
			l-1.2,1.2h-2.9l-1.2-1.2V43z"/>
		<path class="st0" d="M72.3,55.6l-1.2,1.2h-3.3l-1.2-1.2V43l1.2-1.2h3.3l1.2,1.2V55.6z M68.9,43.5l-0.4,0.4v11l0.4,0.4H70l0.4-0.4
			v-11L70,43.5H68.9z"/>
		<path class="st0" d="M76.7,56.8L75.2,45v11.8h-1.7v-15h2.7l1.4,12.1L79,41.8h2.8v15H80V45.1l-1.5,11.8L76.7,56.8L76.7,56.8z"/>
		<path class="st0" d="M83.2,41.8h4.7v1.6h-2.8v5h2.4V50h-2.4v5.2h2.8v1.6h-4.7V41.8z"/>
		<path class="st0" d="M100.2,48.5h2v-6.6h1.9v15h-1.9v-6.7h-2v6.7h-1.9v-15h1.9V48.5z"/>
		<path class="st0" d="M105.4,41.8h4.7v1.6h-2.8v5h2.4V50h-2.4v5.2h2.8v1.6h-4.7V41.8z"/>
		<path class="st0" d="M116.8,43v12.6l-1.2,1.2h-4.4v-15h4.4L116.8,43z M114.9,54.8v-11l-0.4-0.4H113v11.8h1.4L114.9,54.8z"/>
		<path class="st0" d="M118,56.8v-15h1.9v13.4h2.5v1.6C122.4,56.8,118,56.8,118,56.8z"/>
		<path class="st0" d="M125.1,53l-0.4,3.9h-1.9l1.8-15h2.7l1.8,15h-2l-0.4-3.9H125.1z M125.9,43.8l-0.7,7.5h1.4L125.9,43.8z"/>
		<path class="st0" d="M130,41.8h2l2.2,10.4V41.8h1.7v15h-2l-2.2-10.2v10.2H130V41.8z"/>
		<path class="st0" d="M142.8,43v12.6l-1.2,1.2h-4.4v-15h4.4L142.8,43z M140.9,54.8v-11l-0.4-0.4h-1.4v11.8h1.4L140.9,54.8z"/>
		<path class="st0" d="M91.7,46.2v7.5l-1.1,0.1v-7.5l-1,0.1v-0.9l3.1-0.3v0.9L91.7,46.2z"/>
		<path class="st0" d="M96.3,52.7l-0.7,0.7l-1.8,0.2L93.1,53v-7.1l0.7-0.7l1.8-0.2l0.7,0.6C96.3,45.6,96.3,52.7,96.3,52.7z M94.4,46
			l-0.2,0.2v6.2l0.2,0.2H95l0.2-0.2v-6.2L95,46H94.4z"/>
		<path class="st0" d="M3,96h0.9l1.6,4H4.6l-0.3-0.7H2.5L2.3,100H1.4L3,96z M4,98.6L3.4,97l-0.6,1.6H4z"/>
		<path class="st0" d="M10.3,98c-0.1-1,0.6-1.9,1.6-2c0.2,0,0.3,0,0.5,0c0.6,0,1.1,0.2,1.6,0.6l-0.6,0.6c-0.3-0.3-0.6-0.4-1-0.4
			c-0.8,0-1.2,0.4-1.2,1.2s0.3,1.2,1.2,1.2c0.4,0,0.7-0.1,1-0.4l0.6,0.6c-0.4,0.4-1,0.7-1.6,0.6C10.9,100,10.3,99.3,10.3,98z"/>
		<path class="st0" d="M16.3,96h3v0.8h-2.1v0.8h2v0.8h-2v0.9h2.1v0.8h-3V96z"/>
		<path class="st0" d="M21.7,96h0.9v3.2h1.9v0.8h-2.8V96z"/>
		<path class="st0" d="M26.7,96h3v0.8h-2.1v0.8h2v0.8h-2v0.9h2.1v0.8h-3V96z"/>
		<path class="st0" d="M32,96h1.8c1.1,0,1.5,0.3,1.5,1c0.1,0.4-0.2,0.7-0.5,0.9c0.5,0.1,0.6,0.4,0.6,1c0,0.9-0.5,1.1-1.6,1.1H32V96z
			 M33.9,97.6c0.5,0,0.6-0.2,0.6-0.4s-0.1-0.4-0.6-0.4h-1v0.8H33.9z M34,99.2c0.4,0,0.6-0.1,0.6-0.4s-0.2-0.4-0.6-0.4h-1.1v0.9
			L34,99.2L34,99.2z"/>
		<path class="st0" d="M39.5,98.6h-0.9v1.3h-0.8V96h1.9c1.2,0,1.5,0.5,1.5,1.3c0.1,0.6-0.3,1.1-0.8,1.3l0.8,1.4h-0.9L39.5,98.6z
			 M39.7,97.9c0.5,0,0.7-0.1,0.7-0.6s-0.2-0.6-0.7-0.6h-1v1.1L39.7,97.9L39.7,97.9z"/>
		<path class="st0" d="M44.8,96h0.9l1.6,4h-0.9l-0.2-0.7h-1.8L44,100h-0.8L44.8,96z M45.8,98.6L45.2,97l-0.6,1.6H45.8z"/>
		<path class="st0" d="M49.9,96.8h-1.4V96h3.6v0.8h-1.4v3.2h-0.9v-3.2H49.9z"/>
		<path class="st0" d="M54.4,96h0.9v4h-0.9V96z"/>
		<path class="st0" d="M57.6,98c-0.1-1.2,0.8-2.1,2-2.2s2.1,0.8,2.2,2c0.1,1.2-0.8,2.1-2,2.2h-0.1c-1,0.2-1.9-0.5-2.1-1.5
			C57.6,98.3,57.6,98.2,57.6,98z M60.9,98c0-0.8-0.3-1.2-1.2-1.2s-1.2,0.5-1.2,1.2s0.3,1.3,1.2,1.3S60.9,98.8,60.9,98z"/>
		<path class="st0" d="M64.1,96h1l1.8,2.5V96h0.8v4h-0.8l-2-2.7v2.7h-0.8V96z"/>
		<path class="st0" d="M72.8,98c0-1.2,0.8-2.1,2-2.2s2.1,0.8,2.2,2s-0.8,2.1-2,2.2h-0.1c-1,0.2-1.9-0.5-2.1-1.5
			C72.8,98.3,72.8,98.2,72.8,98z M76.1,98c0-0.8-0.3-1.2-1.2-1.2s-1.2,0.4-1.2,1.2s0.3,1.3,1.2,1.3S76.1,98.8,76.1,98z"/>
		<path class="st0" d="M79.3,96h2.9v0.8h-2v0.8h2v0.8h-2v1.5h-0.9V96z"/>
		<path class="st0" d="M88.6,96h0.9l1.6,4h-0.9l-0.3-0.7h-1.8l-0.3,0.7H87L88.6,96z M89.6,98.6L89,97l-0.6,1.6H89.6z"/>
		<path class="st0" d="M93.2,96h0.9v3.2H96v0.8h-2.8V96z"/>
		<path class="st0" d="M98.2,96h0.9v3.2h1.9v0.8h-2.8V96z"/>
		<path class="st0" d="M107.2,96.8h-1.4V96h3.6v0.8H108v3.2h-0.9L107.2,96.8z"/>
		<path class="st0" d="M111.6,96h0.9v1.5h1.8V96h0.9v4h-0.9v-1.7h-1.8v1.6h-0.9V96z"/>
		<path class="st0" d="M117.7,96h0.9v4h-0.9V96z"/>
		<path class="st0" d="M121.1,96h0.9l1.8,2.5V96h0.8v4h-0.8l-2-2.7v2.7H121L121.1,96z"/>
		<path class="st0" d="M127,98c-0.1-1,0.6-1.9,1.6-2c0.2,0,0.3,0,0.5,0c0.6-0.1,1.2,0.2,1.6,0.6l-0.6,0.6c-0.3-0.3-0.6-0.4-1-0.4
			c-0.9,0-1.2,0.4-1.2,1.2s0.2,1.3,1.2,1.3c0.8,0,1-0.3,1-0.8v-0.1H129v-0.7h2v0.6c0,1.1-0.4,1.7-1.9,1.7S127,99.3,127,98z"/>
		<path class="st0" d="M132.8,99.5l0.4-0.6c0.4,0.3,0.9,0.4,1.4,0.4c0.8,0,0.9-0.2,0.9-0.5s-0.3-0.4-0.9-0.5
			c-1.1-0.2-1.6-0.3-1.6-1.2s0.5-1.2,1.6-1.2c0.6,0,1.1,0.1,1.6,0.4l-0.5,0.7c-0.3-0.2-0.7-0.3-1.1-0.3c-0.6,0-0.8,0.1-0.8,0.4
			s0.3,0.4,1,0.5c0.9,0.1,1.6,0.3,1.6,1.2s-0.4,1.2-1.8,1.2C134,100,133.3,99.8,132.8,99.5z"/>
		<path class="st0" d="M141.6,96h0.9v1.5h1.8V96h0.9v4h-0.9v-1.7h-1.8v1.6h-0.9V96z"/>
		<path class="st0" d="M147.6,96h3v0.8h-2.1v0.8h2v0.8h-2v0.9h2.1v0.8h-3V96z"/>
		<path class="st0" d="M153,96h1.4c1.6,0,2.2,0.4,2.2,2s-0.7,2-2.2,2H153V96z M154.4,99.2c1.1,0,1.3-0.3,1.3-1.2s-0.2-1.2-1.3-1.2
			h-0.6v2.4C153.8,99.2,154.4,99.2,154.4,99.2z"/>
		<path class="st0" d="M158.9,96h0.9v3.2h1.9v0.8h-2.8L158.9,96L158.9,96z"/>
		<path class="st0" d="M165.2,96h0.8l1.6,4h-0.9l-0.3-0.7h-1.8l-0.2,0.7h-0.9L165.2,96z M166.2,98.6l-0.6-1.6l-0.6,1.6H166.2z"/>
		<path class="st0" d="M169.8,96h0.9l1.8,2.5V96h0.8v4h-0.8l-2-2.7v2.7h-0.8L169.8,96z"/>
		<path class="st0" d="M175.9,96h1.4c1.6,0,2.2,0.4,2.2,2s-0.7,2-2.2,2h-1.4V96z M177.4,99.2c1.1,0,1.3-0.3,1.3-1.2
			s-0.2-1.2-1.3-1.2h-0.6v2.4C176.8,99.2,177.4,99.2,177.4,99.2z"/>
		<path class="st0" d="M3.9,77.7H2.2v3h1.5v1H2.2v3.9H1v-8.9h2.9V77.7z"/>
		<path class="st0" d="M4.5,76.7h2.8L8,77.4v3.7l-0.7,0.6L8,85.6H6.9l-0.7-3.8H5.7v3.8H4.5V76.7z M6.8,80.7v-2.8l-0.2-0.2H5.7V81
			h0.9L6.8,80.7z"/>
		<path class="st0" d="M8.8,76.7H10v8.9H8.8V76.7z"/>
		<path class="st0" d="M14.4,77.4v7.5l-0.7,0.7h-2.8v-8.9h2.8L14.4,77.4z M13.2,84.4v-6.5L13,77.7h-1v7h0.9L13.2,84.4z"/>
		<path class="st0" d="M16.2,83.3L16,85.6h-1.2l1.1-8.9h1.7l1.2,8.9h-1.2l-0.2-2.3L16.2,83.3z M16.8,77.9l-0.5,4.5h0.9L16.8,77.9z"
			/>
		<path class="st0" d="M19.7,85.6v-2.9l-1.5-6h1.3l0.8,4.4l0.7-4.4h1.3l-1.5,6v2.9H19.7z"/>
		<path class="st0" d="M25.3,77.7h-0.8v-1h2v8.9h-1.2V77.7z"/>
		<path class="st0" d="M27.2,81.4l0.8-0.7h1l0.2-0.2v-2.6L29,77.7h-0.4l-0.2,0.2V79h-1.2v-1.6l0.7-0.7h1.8l0.7,0.7V81l-0.7,0.7h-1.1
			l-0.2,0.2v2.7h2v1h-3.2C27.2,85.6,27.2,81.4,27.2,81.4z"/>
		<path class="st0" d="M34,84.4v-7.7h1.2v8.2l-0.8,0.7h-1.6v-1h1L34,84.4z"/>
		<path class="st0" d="M38.8,85.6h-2L36,84.9v-8.2h1.2v7.7l0.2,0.2H38l0.2-0.2v-7.7h1.2v8.2L38.8,85.6z"/>
		<path class="st0" d="M40.3,76.7h1.3l1.4,6.2v-6.2h1v8.9h-1.2l-1.4-6.1v6.1h-1.1V76.7z"/>
		<path class="st0" d="M44.9,76.7h3v1h-1.8v3h1.5v1h-1.5v3.1h1.8v1h-3V76.7z"/>
		<path class="st0" d="M51.4,81.8c-0.4,0-0.7-0.3-0.7-0.7c0,0,0,0,0-0.1c0-0.4,0.3-0.7,0.7-0.8c0,0,0,0,0.1,0c0.4,0,0.7,0.3,0.8,0.7
			c0,0,0,0,0,0.1C52.2,81.4,51.9,81.7,51.4,81.8C51.5,81.8,51.5,81.8,51.4,81.8L51.4,81.8z"/>
		<path class="st0" d="M57.1,77.9l-0.2-0.2h-0.4l-0.2,0.2v2.5l0.2,0.2h1.2l0.8,0.7v3.6l-0.8,0.7h-1.9L55,84.9V83h1.2v1.4l0.2,0.2
			h0.5l0.2-0.2v-2.6l-0.2-0.2h-1.2L55,80.9v-3.5l0.8-0.7h1.8l0.7,0.7v1.9h-1.2V77.9z"/>
		<path class="st0" d="M61.1,77.6v8h-1.2v-8h-1.1v-0.9h3.5v0.9H61.1z"/>
		<path class="st0" d="M63.8,83.3l-0.2,2.3h-1.2l1.1-8.9h1.7l1.2,8.9h-1.3l-0.2-2.3H63.8z M64.4,77.9l-0.5,4.5h0.9L64.4,77.9z"/>
		<path class="st0" d="M66.9,85.6v-8.9h1.2v7.9h1.6v1H66.9z"/>
		<path class="st0" d="M70.2,85.6v-8.9h1.2v7.9H73v1H70.2z"/>
		<path class="st0" d="M75.6,77.9l-0.2-0.2H75l-0.2,0.2v2.5l0.2,0.2h1.2l0.8,0.7v3.6l-0.8,0.7h-1.9l-0.7-0.7V83h1.2v1.4l0.2,0.2h0.5
			l0.2-0.2v-2.6l-0.2-0.2h-1.2l-0.8-0.7v-3.5l0.8-0.7H76l0.8,0.7v1.9h-1.2C75.6,79.3,75.6,77.9,75.6,77.9z"/>
		<path class="st0" d="M80.6,83.3l-0.2,2.3h-1.2l1.1-8.9H82l1.2,8.9H82l-0.2-2.3H80.6z M81.2,77.9l-0.5,4.5h0.9L81.2,77.9z"/>
		<path class="st0" d="M83.7,85.6v-8.9h1.2v7.9h1.6v1H83.7z"/>
		<path class="st0" d="M87,85.6v-8.9h1.2v7.9h1.6v1H87z"/>
		<path class="st0" d="M95.9,77.4v7.5l-0.7,0.7h-2.8v-8.9h2.8L95.9,77.4z M94.7,84.4v-6.5l-0.2-0.2h-0.9v7h0.9L94.7,84.4z"/>
		<path class="st0" d="M97.8,83.3l-0.2,2.3h-1.2l1.1-8.9h1.7l1.2,8.9h-1.2L99,83.3H97.8z M98.3,77.9l-0.5,4.5h0.9L98.3,77.9z"/>
		<path class="st0" d="M102,85.6v-2.9l-1.4-6h1.3l0.8,4.4l0.7-4.4h1.3l-1.4,6v2.9H102z"/>
		<path class="st0" d="M108.1,81.8c-0.4,0-0.7-0.3-0.7-0.7c0,0,0,0,0-0.1c0-0.4,0.3-0.7,0.7-0.8c0,0,0,0,0.1,0
			c0.4,0,0.7,0.3,0.8,0.7c0,0,0,0,0,0.1C108.9,81.4,108.6,81.7,108.1,81.8C108.2,81.8,108.2,81.8,108.1,81.8L108.1,81.8z"/>
		<path class="st0" d="M111.8,76.7h2.7l0.8,0.7v3.9l-0.8,0.7H113v3.6h-1.2V76.7z M114,80.9v-3l-0.2-0.2H113v3.5h0.8L114,80.9z"/>
		<path class="st0" d="M115.8,76.7h3v1H117v3h1.5v1H117v3.1h1.8v1h-3V76.7z"/>
		<path class="st0" d="M122.3,77.7h-1.7v3h1.5v1h-1.5v3.9h-1.2v-8.9h2.9C122.3,76.7,122.3,77.7,122.3,77.7z"/>
		<path class="st0" d="M126.4,84.9l-0.7,0.7h-2.1l-0.7-0.7v-7.5l0.7-0.7h2.1l0.7,0.7V84.9z M124.3,77.7l-0.2,0.2v6.5l0.2,0.2h0.7
			l0.2-0.2v-6.5l-0.2-0.2H124.3z"/>
		<path class="st0" d="M127.2,76.7h2.8l0.8,0.7v3.7l-0.7,0.6l0.7,3.9h-1.1l-0.7-3.8h-0.5v3.8h-1.2L127.2,76.7z M129.5,80.7v-2.8
			l-0.2-0.2h-0.9V81h0.9L129.5,80.7z"/>
		<path class="st0" d="M133.6,85.6l-0.9-7v7h-1.1v-8.9h1.7l0.9,7.2l0.8-7.2h1.8v8.9h-1.1v-7l-0.9,7H133.6z"/>
		<path class="st0" d="M138.8,83.3l-0.2,2.3h-1.2l1.1-8.9h1.7l1.2,8.9h-1.2l-0.2-2.3H138.8z M139.3,77.9l-0.5,4.5h0.9L139.3,77.9z"
			/>
		<path class="st0" d="M141.9,76.7h1.3l1.4,6.2v-6.2h1.1v8.9h-1.3l-1.4-6.1v6.1h-1.1V76.7z"/>
		<path class="st0" d="M146.4,77.4l0.8-0.7h1.9l0.7,0.7v2h-1.2v-1.5l-0.2-0.2H148l-0.2,0.2v6.5l0.2,0.2h0.4l0.2-0.2v-1.5h1.2v2
			l-0.7,0.7h-1.8l-0.8-0.7L146.4,77.4z"/>
		<path class="st0" d="M150.4,76.7h2.9v1h-1.8v3h1.5v1h-1.5v3.1h1.8v1h-3L150.4,76.7z"/>
		<path class="st0" d="M156,77.9l-0.2-0.2h-0.4l-0.2,0.2v2.5l0.2,0.2h1.2l0.8,0.7v3.6l-0.8,0.7h-1.9l-0.7-0.7V83h1.2v1.4l0.2,0.2
			h0.5l0.2-0.2v-2.6l-0.2-0.2h-1.2l-0.8-0.7v-3.5l0.8-0.7h1.8l0.8,0.7v1.9H156V77.9z"/>
		<path class="st0" d="M161.1,80.4l0.4-0.4h1l0.8,0.7v4.2l-0.8,0.7h-1.9l-0.7-0.7v-1.8h1.2v1.3l0.2,0.2h0.5l0.2-0.2v-3.2l-0.2-0.2
			h-0.5l-0.2,0.2l-1.2-0.3v-4.1h3.3v1h-2.1V80.4z"/>
		<path class="st0" d="M163.7,81.6v-1h2.3v1H163.7z"/>
		<path class="st0" d="M170,80.4l-0.8,0.7l0.8,0.7v3.1l-0.8,0.7h-1.9l-0.7-0.7v-3.1l0.7-0.7l-0.7-0.7v-3l0.7-0.7h1.9l0.8,0.7V80.4z
			 M168,77.7l-0.2,0.2v2.5l0.2,0.2h0.6l0.2-0.2v-2.5l-0.2-0.2H168z M168,81.6l-0.2,0.2v2.6l0.2,0.2h0.6l0.2-0.2v-2.6l-0.2-0.2H168z"
			/>
		<path class="st0" d="M170.7,76.7h2.7l0.8,0.7v3.9l-0.8,0.7h-1.5v3.6h-1.2V76.7z M173,80.9v-3l-0.2-0.2H172v3.5h0.8L173,80.9z"/>
		<path class="st0" d="M176.8,85.6l-0.9-7v7h-1.1v-8.9h1.7l0.9,7.2l0.9-7.2h1.8v8.9H179v-7l-0.9,7H176.8z"/>
		<path class="st0" d="M58.1,60.8h1.4c1.6,0,2.2,0.4,2.2,2c0,1.6-0.7,2-2.2,2h-1.4V60.8z M59.6,64c1.1,0,1.3-0.3,1.3-1.2
			s-0.2-1.2-1.3-1.2H59V64H59.6z"/>
		<path class="st0" d="M64.1,60.8H65v4h-0.9V60.8z"/>
		<path class="st0" d="M67.3,62.7c-0.1-1,0.6-1.9,1.6-2c0.2,0,0.3,0,0.5,0c0.6,0,1.2,0.2,1.6,0.6l-0.6,0.6c-0.3-0.3-0.6-0.4-1-0.4
			c-0.9,0-1.2,0.4-1.2,1.2s0.2,1.2,1.2,1.2c0.8,0,1-0.2,1-0.8V63h-1.1v-0.7h2V63c0,1.1-0.4,1.7-1.9,1.7S67.3,64.1,67.3,62.7z"/>
		<path class="st0" d="M73.5,60.8h0.9v4h-0.9V60.8z"/>
		<path class="st0" d="M78,61.6h-1.4v-0.8h3.6v0.8h-1.4v3.2H78V61.6z"/>
		<path class="st0" d="M83.7,60.7h0.9l1.6,4h-0.9L85,64.1h-1.8L83,64.7h-0.8L83.7,60.7z M84.7,63.4l-0.6-1.6l-0.6,1.6H84.7z"/>
		<path class="st0" d="M88.4,60.8h0.9V64h1.9v0.8h-2.8V60.8z"/>
		<path class="st0" d="M96.2,60.8h3v0.8h-2.1v0.8h2v0.8h-2V64h2.1v0.8h-3V60.8z"/>
		<path class="st0" d="M101.3,60.8h0.9l1.1,2.9l1.1-2.9h0.9l-1.6,4h-0.9L101.3,60.8z"/>
		<path class="st0" d="M107.5,60.8h3v0.8h-2.1v0.8h2v0.8h-2V64h2.1v0.8h-3V60.8z"/>
		<path class="st0" d="M112.8,60.8h0.9l1.8,2.5v-2.5h0.8v4h-0.8l-2-2.7v2.7h-0.8L112.8,60.8z"/>
		<path class="st0" d="M120,61.6h-1.4v-0.8h3.6v0.8h-1.4v3.2H120V61.6z"/>
		<polygon class="st0" points="43,60.5 50.2,65.1 50.5,62.7 55.7,65.9 49.7,60.6 49.4,62.8 		"/>
		<polygon class="st0" points="137.7,60.5 130.6,65.1 130.2,62.7 125.1,65.9 131,60.6 131.3,62.8 		"/>
	</g>
</g>
</svg>
